<svg fill="#1C4ED8" xmlns="http://www.w3.org/2000/svg" xml:space="preserve" id="alarm" x="0" y="0" version="1.1" viewBox="0 0 29 29">
  <path d="M22.598 22.184A10.46 10.46 0 0 0 25 15.5C25 9.701 20.299 5 14.5 5S4 9.701 4 15.5c0 2.539.902 4.868 2.402 6.684l-2.109 2.109a.999.999 0 1 0 1.414 1.414l2.109-2.109C9.632 25.098 11.961 26 14.5 26s4.868-.902 6.684-2.402l2.109 2.109a.997.997 0 0 0 1.414 0 .999.999 0 0 0 0-1.414l-2.109-2.109zM15.5 16.5H8v-2h5.5V7h2v9.5zM9.408 4.092A4.457 4.457 0 0 0 6.5 3 4.5 4.5 0 0 0 2 7.5c0 1.115.42 2.122 1.092 2.908a12.528 12.528 0 0 1 6.316-6.316zM25.908 10.408A4.457 4.457 0 0 0 27 7.5 4.5 4.5 0 0 0 22.5 3c-1.115 0-2.122.42-2.908 1.092a12.528 12.528 0 0 1 6.316 6.316z"></path>
</svg>
